<mxfile host="app.diagrams.net" modified="2021-12-02T13:17:09.118Z" agent="5.0 (Windows NT 10.0; Win64; x64) AppleWebKit/537.36 (KHTML, like Gecko) Chrome/96.0.4664.45 Safari/537.36" etag="YjdN83O5oBfxfRMDmxLD" version="15.8.8" type="github">
  <diagram id="Xn0tVXJjf7EoQQK6EMrX" name="Page-1">
    <mxGraphModel dx="3137" dy="827" grid="1" gridSize="10" guides="1" tooltips="1" connect="1" arrows="1" fold="1" page="1" pageScale="1" pageWidth="827" pageHeight="1169" math="0" shadow="0">
      <root>
        <mxCell id="0" />
        <mxCell id="1" parent="0" />
        <mxCell id="cg2cYnzJ5RmDmPxi0Xtj-1" value="" style="rounded=1;whiteSpace=wrap;html=1;fillColor=#dae8fc;gradientColor=#7ea6e0;strokeColor=#6c8ebf;" vertex="1" parent="1">
          <mxGeometry x="-1070" y="50" width="1840" height="1070" as="geometry" />
        </mxCell>
        <mxCell id="cg2cYnzJ5RmDmPxi0Xtj-2" value="" style="rounded=0;whiteSpace=wrap;html=1;fillColor=#fff2cc;gradientColor=#ffd966;strokeColor=#d6b656;" vertex="1" parent="1">
          <mxGeometry x="-950" y="180" width="240" height="150" as="geometry" />
        </mxCell>
        <mxCell id="cg2cYnzJ5RmDmPxi0Xtj-3" value="" style="rounded=0;whiteSpace=wrap;html=1;fillColor=#fff2cc;gradientColor=#ffd966;strokeColor=#d6b656;" vertex="1" parent="1">
          <mxGeometry x="-950" y="411" width="240" height="310" as="geometry" />
        </mxCell>
        <mxCell id="cg2cYnzJ5RmDmPxi0Xtj-9" value="" style="rounded=0;whiteSpace=wrap;html=1;fillColor=#fff2cc;gradientColor=#ffd966;strokeColor=#d6b656;" vertex="1" parent="1">
          <mxGeometry x="-950" y="880" width="240" height="150" as="geometry" />
        </mxCell>
        <mxCell id="cg2cYnzJ5RmDmPxi0Xtj-10" value="" style="rounded=0;whiteSpace=wrap;html=1;fillColor=#fff2cc;gradientColor=#ffd966;strokeColor=#d6b656;" vertex="1" parent="1">
          <mxGeometry x="-600" y="880" width="240" height="150" as="geometry" />
        </mxCell>
        <mxCell id="cg2cYnzJ5RmDmPxi0Xtj-11" value="" style="rounded=0;whiteSpace=wrap;html=1;fillColor=#fff2cc;gradientColor=#ffd966;strokeColor=#d6b656;" vertex="1" parent="1">
          <mxGeometry x="-240" y="880" width="240" height="150" as="geometry" />
        </mxCell>
        <mxCell id="cg2cYnzJ5RmDmPxi0Xtj-12" value="" style="rounded=0;whiteSpace=wrap;html=1;fillColor=#fff2cc;gradientColor=#ffd966;strokeColor=#d6b656;" vertex="1" parent="1">
          <mxGeometry x="120" y="880" width="240" height="150" as="geometry" />
        </mxCell>
        <mxCell id="cg2cYnzJ5RmDmPxi0Xtj-13" value="" style="rounded=0;whiteSpace=wrap;html=1;fillColor=#fff2cc;gradientColor=#ffd966;strokeColor=#d6b656;" vertex="1" parent="1">
          <mxGeometry x="-590" y="180" width="250" height="150" as="geometry" />
        </mxCell>
        <mxCell id="cg2cYnzJ5RmDmPxi0Xtj-14" value="" style="rounded=0;whiteSpace=wrap;html=1;fillColor=#fff2cc;gradientColor=#ffd966;strokeColor=#d6b656;" vertex="1" parent="1">
          <mxGeometry x="30" y="190" width="240" height="150" as="geometry" />
        </mxCell>
        <mxCell id="cg2cYnzJ5RmDmPxi0Xtj-15" value="" style="rounded=0;whiteSpace=wrap;html=1;fillColor=#fff2cc;gradientColor=#ffd966;strokeColor=#d6b656;" vertex="1" parent="1">
          <mxGeometry x="460" y="190" width="240" height="150" as="geometry" />
        </mxCell>
        <mxCell id="cg2cYnzJ5RmDmPxi0Xtj-16" value="" style="rounded=0;whiteSpace=wrap;html=1;fillColor=#fff2cc;gradientColor=#ffd966;strokeColor=#d6b656;" vertex="1" parent="1">
          <mxGeometry x="460" y="519" width="240" height="170" as="geometry" />
        </mxCell>
        <mxCell id="cg2cYnzJ5RmDmPxi0Xtj-17" value="" style="rounded=0;whiteSpace=wrap;html=1;fillColor=#fff2cc;gradientColor=#ffd966;strokeColor=#d6b656;" vertex="1" parent="1">
          <mxGeometry x="460" y="410" width="240" height="75" as="geometry" />
        </mxCell>
        <mxCell id="cg2cYnzJ5RmDmPxi0Xtj-18" value="" style="shape=flexArrow;endArrow=classic;html=1;rounded=0;fillColor=#e51400;strokeColor=#B20000;width=12.5;endSize=10.058823529411766;endWidth=34.705882352941174;entryX=0.25;entryY=0;entryDx=0;entryDy=0;" edge="1" parent="1" target="cg2cYnzJ5RmDmPxi0Xtj-9">
          <mxGeometry width="50" height="50" relative="1" as="geometry">
            <mxPoint x="-892" y="720" as="sourcePoint" />
            <mxPoint x="-892" y="820" as="targetPoint" />
          </mxGeometry>
        </mxCell>
        <mxCell id="cg2cYnzJ5RmDmPxi0Xtj-19" value="" style="shape=flexArrow;endArrow=classic;html=1;rounded=0;fillColor=#e51400;strokeColor=#B20000;width=12.5;endSize=10.058823529411766;endWidth=34.705882352941174;entryX=0.75;entryY=1;entryDx=0;entryDy=0;exitX=0.75;exitY=0;exitDx=0;exitDy=0;" edge="1" parent="1" source="cg2cYnzJ5RmDmPxi0Xtj-9" target="cg2cYnzJ5RmDmPxi0Xtj-3">
          <mxGeometry width="50" height="50" relative="1" as="geometry">
            <mxPoint x="-882" y="730" as="sourcePoint" />
            <mxPoint x="-882" y="830" as="targetPoint" />
          </mxGeometry>
        </mxCell>
        <mxCell id="cg2cYnzJ5RmDmPxi0Xtj-20" value="" style="shape=flexArrow;endArrow=classic;startArrow=classic;html=1;rounded=0;fillColor=#e51400;strokeColor=#B20000;entryX=0.208;entryY=1;entryDx=0;entryDy=0;entryPerimeter=0;exitX=0.25;exitY=0;exitDx=0;exitDy=0;endWidth=48.23529411764706;endSize=7.23529411764706;width=28.235294117647058;" edge="1" parent="1" source="cg2cYnzJ5RmDmPxi0Xtj-10" target="cg2cYnzJ5RmDmPxi0Xtj-13">
          <mxGeometry width="100" height="100" relative="1" as="geometry">
            <mxPoint x="-530" y="720" as="sourcePoint" />
            <mxPoint x="-430" y="620" as="targetPoint" />
            <Array as="points">
              <mxPoint x="-540" y="570" />
            </Array>
          </mxGeometry>
        </mxCell>
        <mxCell id="cg2cYnzJ5RmDmPxi0Xtj-21" value="" style="shape=flexArrow;endArrow=classic;html=1;rounded=0;fillColor=#e51400;strokeColor=#B20000;exitX=1;exitY=0.75;exitDx=0;exitDy=0;entryX=0;entryY=0.75;entryDx=0;entryDy=0;endWidth=25.555555555555554;endSize=13.816666666666666;width=26.666666666666668;" edge="1" parent="1" source="cg2cYnzJ5RmDmPxi0Xtj-3" target="cg2cYnzJ5RmDmPxi0Xtj-16">
          <mxGeometry width="50" height="50" relative="1" as="geometry">
            <mxPoint x="-130" y="660" as="sourcePoint" />
            <mxPoint x="-80" y="610" as="targetPoint" />
          </mxGeometry>
        </mxCell>
        <mxCell id="cg2cYnzJ5RmDmPxi0Xtj-22" value="" style="shape=flexArrow;endArrow=classic;html=1;rounded=0;fillColor=#e51400;strokeColor=#B20000;entryX=0.25;entryY=1;entryDx=0;entryDy=0;endWidth=54.16666666666667;endSize=8.583333333333334;width=20.833333333333336;" edge="1" parent="1" target="cg2cYnzJ5RmDmPxi0Xtj-14">
          <mxGeometry width="50" height="50" relative="1" as="geometry">
            <mxPoint x="90" y="640" as="sourcePoint" />
            <mxPoint x="-80" y="610" as="targetPoint" />
          </mxGeometry>
        </mxCell>
        <mxCell id="cg2cYnzJ5RmDmPxi0Xtj-23" value="" style="rounded=0;whiteSpace=wrap;html=1;fillColor=#fff2cc;gradientColor=#ffd966;strokeColor=#d6b656;" vertex="1" parent="1">
          <mxGeometry x="-380" y="760" width="910" height="49" as="geometry" />
        </mxCell>
        <mxCell id="cg2cYnzJ5RmDmPxi0Xtj-24" value="" style="shape=flexArrow;endArrow=classic;startArrow=classic;html=1;rounded=0;fillColor=#e51400;strokeColor=#B20000;exitX=0.959;exitY=0.024;exitDx=0;exitDy=0;exitPerimeter=0;" edge="1" parent="1" source="cg2cYnzJ5RmDmPxi0Xtj-23">
          <mxGeometry width="100" height="100" relative="1" as="geometry">
            <mxPoint x="-90" y="720" as="sourcePoint" />
            <mxPoint x="497" y="690" as="targetPoint" />
          </mxGeometry>
        </mxCell>
        <mxCell id="cg2cYnzJ5RmDmPxi0Xtj-25" value="" style="shape=flexArrow;endArrow=classic;startArrow=classic;html=1;rounded=0;fillColor=#e51400;strokeColor=#B20000;exitX=0.75;exitY=0;exitDx=0;exitDy=0;" edge="1" parent="1" source="cg2cYnzJ5RmDmPxi0Xtj-12">
          <mxGeometry width="100" height="100" relative="1" as="geometry">
            <mxPoint x="507.1999999999998" y="771.1759999999999" as="sourcePoint" />
            <mxPoint x="300" y="810" as="targetPoint" />
          </mxGeometry>
        </mxCell>
        <mxCell id="cg2cYnzJ5RmDmPxi0Xtj-26" value="" style="shape=flexArrow;endArrow=classic;startArrow=classic;html=1;rounded=0;fillColor=#e51400;strokeColor=#B20000;exitX=0.796;exitY=-0.01;exitDx=0;exitDy=0;entryX=0.363;entryY=1.069;entryDx=0;entryDy=0;entryPerimeter=0;exitPerimeter=0;" edge="1" parent="1" source="cg2cYnzJ5RmDmPxi0Xtj-11" target="cg2cYnzJ5RmDmPxi0Xtj-23">
          <mxGeometry width="100" height="100" relative="1" as="geometry">
            <mxPoint x="310" y="890" as="sourcePoint" />
            <mxPoint x="310" y="820" as="targetPoint" />
          </mxGeometry>
        </mxCell>
        <mxCell id="cg2cYnzJ5RmDmPxi0Xtj-27" value="" style="shape=flexArrow;endArrow=classic;startArrow=classic;html=1;rounded=0;fillColor=#e51400;strokeColor=#B20000;entryX=0;entryY=0.25;entryDx=0;entryDy=0;width=21.142857142857142;startSize=6.64;" edge="1" parent="1" target="cg2cYnzJ5RmDmPxi0Xtj-16">
          <mxGeometry width="100" height="100" relative="1" as="geometry">
            <mxPoint x="-710" y="562" as="sourcePoint" />
            <mxPoint x="-37.59999999999991" y="817.873" as="targetPoint" />
          </mxGeometry>
        </mxCell>
        <mxCell id="cg2cYnzJ5RmDmPxi0Xtj-28" value="" style="shape=flexArrow;endArrow=classic;startArrow=classic;html=1;rounded=0;fillColor=#e51400;strokeColor=#B20000;entryX=0.75;entryY=1;entryDx=0;entryDy=0;width=27.586206896551726;startSize=6.268965517241379;exitX=0.809;exitY=-0.006;exitDx=0;exitDy=0;exitPerimeter=0;" edge="1" parent="1" source="cg2cYnzJ5RmDmPxi0Xtj-10" target="cg2cYnzJ5RmDmPxi0Xtj-13">
          <mxGeometry width="100" height="100" relative="1" as="geometry">
            <mxPoint x="-700" y="572" as="sourcePoint" />
            <mxPoint x="470" y="571.5" as="targetPoint" />
          </mxGeometry>
        </mxCell>
      </root>
    </mxGraphModel>
  </diagram>
</mxfile>
